<?xml version="1.0" encoding="UTF-8" standalone="no"?>
<svg
   xmlns:dc="http://purl.org/dc/elements/1.1/"
   xmlns:cc="http://creativecommons.org/ns#"
   xmlns:rdf="http://www.w3.org/1999/02/22-rdf-syntax-ns#"
   xmlns:svg="http://www.w3.org/2000/svg"
   xmlns="http://www.w3.org/2000/svg"
   viewBox="0 0 4493.7603 3178.5598"
   height="3178.5598"
   width="4493.7603"
   xml:space="preserve"
   id="svg2"
   version="1.1"><metadata
     id="metadata8"><rdf:RDF><cc:Work
         rdf:about=""><dc:format>image/svg+xml</dc:format><dc:type
           rdf:resource="http://purl.org/dc/dcmitype/StillImage" /></cc:Work></rdf:RDF></metadata><defs
     id="defs6"><clipPath
       id="clipPath20"
       clipPathUnits="userSpaceOnUse"><path
         id="path18"
         d="M 0,0 V 2383.9199 H 3370.3201 V 0 Z" /></clipPath></defs><g
     transform="matrix(1.3333333,0,0,-1.3333333,0,3178.5599)"
     id="g10"><g
       transform="matrix(1,0,0,-1,0,2383.9199)"
       id="g12"><g
         id="g14"><g
           clip-path="url(#clipPath20)"
           id="g16"><path
             id="path22"
             style="fill:none;stroke:#000000;stroke-width:0.23999999;stroke-linecap:round;stroke-linejoin:round;stroke-miterlimit:10;stroke-dasharray:none;stroke-opacity:1"
             d="m 3029.46,1396.1257 h 111.7959 V 1284.3298 H 3029.46 2917.6643 2805.8687 2694.0728 2582.2769 v 111.7959 h 111.7959 111.7959 111.7956 z" /><path
             id="path24"
             style="fill:none;stroke:#000000;stroke-width:0.23999999;stroke-linecap:round;stroke-linejoin:round;stroke-miterlimit:10;stroke-dasharray:none;stroke-opacity:1"
             d="m 2694.0728,1172.5341 h 111.7959 111.7956 111.7957 111.7959 V 1060.7384 H 3029.46 2917.6643 2805.8687 2694.0728 Z" /><path
             id="path26"
             style="fill:none;stroke:#000000;stroke-width:0.23999999;stroke-linecap:round;stroke-linejoin:round;stroke-miterlimit:10;stroke-dasharray:none;stroke-opacity:1"
             d="M 3141.2559,948.94257 V 837.14673 H 3029.46 2917.6643 2805.8687 2694.0728 2582.2769 v 111.79584 h 111.7959 111.7959 111.7956 111.7957 z" /><path
             id="path28"
             style="fill:none;stroke:#000000;stroke-width:0.23999999;stroke-linecap:round;stroke-linejoin:round;stroke-miterlimit:10;stroke-dasharray:none;stroke-opacity:1"
             d="M 2358.6853,948.94257 V 837.14673 h -111.7957 v 111.79584 111.79583 111.7957 111.7957 111.7959 h 111.7957 v -111.7959 -111.7957 -111.7957 z" /><path
             id="path30"
             style="fill:none;stroke:#000000;stroke-width:0.23999999;stroke-linecap:round;stroke-linejoin:round;stroke-miterlimit:10;stroke-dasharray:none;stroke-opacity:1"
             d="m 2023.298,1284.3298 h 111.796 V 1172.5341 1060.7384 948.94257 837.14673 h -111.796 v 111.79584 111.79583 111.7957 z" /><path
             id="path32"
             style="fill:none;stroke:#000000;stroke-width:0.23999999;stroke-linecap:round;stroke-linejoin:round;stroke-miterlimit:10;stroke-dasharray:none;stroke-opacity:1"
             d="M 1911.5023,948.94257 V 837.14673 h -111.7959 v 111.79584 111.79583 111.7957 111.7957 111.7959 h 111.7959 v -111.7959 -111.7957 -111.7957 z" /><path
             id="path34"
             style="fill:none;stroke:#000000;stroke-width:0.23999999;stroke-linecap:round;stroke-linejoin:round;stroke-miterlimit:10;stroke-dasharray:none;stroke-opacity:1"
             d="m 1576.1147,1396.1257 v -111.7959 h -111.7956 -111.7958 -111.7959 -111.7956 -111.7959 v 111.7959 h 111.7959 111.7956 111.7959 111.7958 z" /><path
             id="path36"
             style="fill:none;stroke:#000000;stroke-width:0.23999999;stroke-linecap:round;stroke-linejoin:round;stroke-miterlimit:10;stroke-dasharray:none;stroke-opacity:1"
             d="m 1464.3191,1172.5341 v -111.7957 h -111.7958 -111.7959 -111.7956 -111.7959 v 111.7957 h 111.7959 111.7956 111.7959 z" /><path
             id="path38"
             style="fill:none;stroke:#000000;stroke-width:0.23999999;stroke-linecap:round;stroke-linejoin:round;stroke-miterlimit:10;stroke-dasharray:none;stroke-opacity:1"
             d="M 1576.1147,948.94257 V 837.14673 h -111.7956 -111.7958 -111.7959 -111.7956 -111.7959 v 111.79584 h 111.7959 111.7956 111.7959 111.7958 z" /><path
             id="path40"
             style="fill:none;stroke:#000000;stroke-width:0.23999999;stroke-linecap:round;stroke-linejoin:round;stroke-miterlimit:10;stroke-dasharray:none;stroke-opacity:1"
             d="M 681.74854,1396.1257 H 793.54437 V 1284.3298 1172.5341 1060.7384 948.94257 837.14673 H 681.74854 v 111.79584 111.79583 111.7957 111.7957 z" /><path
             id="path42"
             style="fill:none;stroke:#000000;stroke-width:0.23999999;stroke-linecap:round;stroke-linejoin:round;stroke-miterlimit:10;stroke-dasharray:none;stroke-opacity:1"
             d="M 458.15698,1396.1257 H 569.95276 V 1284.3298 1172.5341 1060.7384 948.94257 H 458.15698 v 111.79583 111.7957 111.7957 z" /><path
             id="path44"
             style="fill:none;stroke:#000000;stroke-width:0.23999999;stroke-linecap:round;stroke-linejoin:round;stroke-miterlimit:10;stroke-dasharray:none;stroke-opacity:1"
             d="M 234.5654,1396.1257 H 346.36121 V 1284.3298 1172.5341 1060.7384 948.94257 837.14673 H 234.5654 v 111.79584 111.79583 111.7957 111.7957 z" /></g></g></g></g></svg>